PathFileType	4	(X/Y/Z)	output.trc
DataRate	CameraRate	NumFrames	NumMarkers	Units	OrigDataRate	OrigDataStartFrame	OrigNumFrames
100	100	16	23	m	100	3489	5582
Frame#	Time	C7			T8			EL			EM			US			RS			AA			Fore_Clus_1			Fore_Clus_2			Fore_Clus_3			Fore_Clus_4			Hum_Clus_1			Hum_Clus_2			Hum_Clus_3			Hum_Clus_4			Thor_Clus_1			Thor_Clus_2			Thor_Clus_3			Thor_Clus_4			IJ			PX			GH			Thor_Clus_5		
		X1	Y1	Z1	X2	Y2	Z2	X3	Y3	Z3	X4	Y4	Z4	X5	Y5	Z5	X6	Y6	Z6	X7	Y7	Z7	X8	Y8	Z8	X9	Y9	Z9	X10	Y10	Z10	X11	Y11	Z11	X12	Y12	Z12	X13	Y13	Z13	X14	Y14	Z14	X15	Y15	Z15	X16	Y16	Z16	X17	Y17	Z17	X18	Y18	Z18	X19	Y19	Z19	X20	Y20	Z20	X21	Y21	Z21	X22	Y22	Z22	X23	Y23	Z23
3488	34.880000	-0.017410	1.366328	-0.161647	-0.080059	1.166439	-0.135042	-0.331616	1.503614	0.042904	-0.332807	1.461894	0.084826	-0.451945	1.693823	0.113885	-0.423620	1.697154	0.156870	-0.175808	1.371648	-0.037790	-0.400940	1.684374	0.082221	-0.429025	1.726857	0.102445	-0.412683	1.726783	0.125155	-0.374281	1.683870	0.118876	-0.255153	1.481540	-0.047486	-0.284372	1.428958	-0.052634	-0.246545	1.400439	-0.095441	-0.207488	1.444392	-0.090390	0.060708	1.303281	0.009054	0.003660	1.283043	0.068104	0.021127	1.316737	0.024276	0.060933	1.263313	0.046087	0.013024	1.318442	-0.037909	-0.021114	1.150365	0.065199	-0.130298	1.344752	-0.065935	0.003588	1.300791	0.051316
3489	34.890000	-0.017864	1.366263	-0.161670	-0.079946	1.166176	-0.135216	-0.333462	1.500825	0.044138	-0.334304	1.458814	0.085778	-0.455436	1.689356	0.116665	-0.427130	1.692589	0.159670	-0.176243	1.371036	-0.037768	-0.404422	1.680527	0.084953	-0.432794	1.722617	0.105534	-0.416419	1.722503	0.128065	-0.377708	1.680026	0.121535	-0.256811	1.480025	-0.046426	-0.285565	1.427265	-0.051927	-0.247442	1.399359	-0.094999	-0.208848	1.443561	-0.089582	0.060452	1.303312	0.008980	0.003472	1.282906	0.067945	0.020830	1.316613	0.024200	0.060823	1.263309	0.045952	0.012736	1.318359	-0.037980	-0.020903	1.150101	0.064997	-0.130829	1.344385	-0.065763	0.003369	1.300602	0.051262
3490	34.900000	-0.018332	1.366188	-0.161685	-0.079823	1.165899	-0.135383	-0.335326	1.497918	0.045411	-0.335810	1.455607	0.086751	-0.458946	1.684698	0.119558	-0.430659	1.687815	0.162583	-0.176691	1.370395	-0.037736	-0.407881	1.676578	0.087799	-0.436620	1.718237	0.108662	-0.420369	1.718015	0.131507	-0.381094	1.675953	0.124308	-0.258433	1.478372	-0.045247	-0.286778	1.425450	-0.051299	-0.248487	1.398217	-0.094411	-0.210205	1.442729	-0.088774	0.060195	1.303333	0.008901	0.003327	1.282749	0.067884	0.020585	1.316544	0.024179	0.060710	1.263291	0.045829	0.012442	1.318269	-0.038044	-0.020679	1.149827	0.064800	-0.131375	1.343990	-0.065593	0.003167	1.300409	0.051176
3491	34.910000	-0.018810	1.366109	-0.161692	-0.079693	1.165614	-0.135550	-0.337206	1.494890	0.046718	-0.337323	1.452267	0.087740	-0.462468	1.679852	0.122559	-0.434197	1.682830	0.165606	-0.177147	1.369731	-0.037695	-0.411344	1.672480	0.090782	-0.440573	1.713687	0.112131	-0.424063	1.713363	0.134698	-0.384573	1.671752	0.127136	-0.260109	1.476653	-0.044156	-0.288008	1.423594	-0.050557	-0.249411	1.397019	-0.093955	-0.211583	1.441788	-0.087857	0.059967	1.303355	0.008845	0.003149	1.282559	0.067802	0.020344	1.316425	0.024107	0.060574	1.263262	0.045709	0.012141	1.318174	-0.038101	-0.020446	1.149542	0.064603	-0.131933	1.343567	-0.065427	0.002966	1.300231	0.051151
3492	34.920000	-0.019298	1.366031	-0.161688	-0.079548	1.165321	-0.135720	-0.339099	1.491738	0.048053	-0.338845	1.448793	0.088736	-0.465992	1.674809	0.125663	-0.437740	1.677623	0.168733	-0.177612	1.369041	-0.037647	-0.414810	1.668220	0.093805	-0.444550	1.708874	0.115856	-0.427967	1.708581	0.138220	-0.388075	1.667346	0.130268	-0.261795	1.474898	-0.042877	-0.289254	1.421625	-0.049864	-0.250468	1.395737	-0.093394	-0.212992	1.440804	-0.086944	0.059734	1.303379	0.008775	0.003141	1.282529	0.067757	0.020076	1.316332	0.024041	0.060462	1.263248	0.045596	0.011835	1.318075	-0.038151	-0.020198	1.149246	0.064402	-0.132503	1.343113	-0.065263	0.002735	1.300036	0.051108
3493	34.930000	-0.019789	1.365958	-0.161674	-0.079386	1.165029	-0.135900	-0.341004	1.488460	0.049410	-0.340373	1.445180	0.089733	-0.469514	1.669565	0.128862	-0.441280	1.672189	0.171956	-0.178084	1.368329	-0.037594	-0.418174	1.663824	0.097005	-0.447862	1.704114	0.118849	-0.431920	1.703471	0.141862	-0.391545	1.662728	0.133448	-0.263487	1.473030	-0.041621	-0.290559	1.419679	-0.049082	-0.251493	1.394468	-0.092823	-0.214454	1.439806	-0.086002	0.059494	1.303400	0.008712	0.003212	1.282508	0.067737	0.019869	1.316240	0.024007	0.060357	1.263218	0.045485	0.011527	1.317975	-0.038194	-0.019939	1.148937	0.064192	-0.133082	1.342629	-0.065104	0.002518	1.299834	0.051011
3494	34.940000	-0.020279	1.365898	-0.161648	-0.079204	1.164743	-0.136096	-0.342916	1.485054	0.050785	-0.341906	1.441427	0.090724	-0.473027	1.664118	0.132146	-0.444812	1.666525	0.175264	-0.178558	1.367601	-0.037537	-0.421561	1.659206	0.100215	-0.452010	1.698901	0.122976	-0.435346	1.698312	0.145146	-0.394984	1.657916	0.136680	-0.265358	1.471228	-0.040410	-0.291889	1.417364	-0.048019	-0.252632	1.393082	-0.092214	-0.215940	1.438745	-0.085063	0.059252	1.303403	0.008645	0.003028	1.282234	0.067628	0.019598	1.316089	0.023919	0.060258	1.263182	0.045355	0.011219	1.317877	-0.038229	-0.019667	1.148617	0.063966	-0.133666	1.342114	-0.064949	0.002272	1.299591	0.050894
3495	34.950000	-0.020762	1.365857	-0.161607	-0.078995	1.164468	-0.136313	-0.344833	1.481520	0.052171	-0.343440	1.437534	0.091703	-0.476528	1.658458	0.135501	-0.448335	1.660623	0.178647	-0.179031	1.366855	-0.037476	-0.424931	1.654384	0.103554	-0.455827	1.693459	0.126742	-0.439420	1.692746	0.149299	-0.398427	1.653017	0.140016	-0.267192	1.469282	-0.039127	-0.293060	1.415266	-0.047188	-0.253655	1.391702	-0.091609	-0.217480	1.437553	-0.084021	0.059031	1.303386	0.008579	0.002900	1.281990	0.067580	0.019330	1.315912	0.023877	0.060150	1.263113	0.045235	0.010914	1.317782	-0.038255	-0.019380	1.148283	0.063721	-0.134251	1.341572	-0.064797	0.002049	1.299355	0.050805
3496	34.960000	-0.021232	1.365842	-0.161551	-0.078760	1.164213	-0.136556	-0.346749	1.477858	0.053563	-0.344970	1.433501	0.092663	-0.480016	1.652588	0.138915	-0.451846	1.654485	0.182089	-0.179498	1.366102	-0.037413	-0.428383	1.649406	0.106921	-0.459370	1.688133	0.130074	-0.443280	1.687164	0.153084	-0.401902	1.647848	0.143285	-0.268987	1.467209	-0.037793	-0.294271	1.413134	-0.046358	-0.254775	1.390188	-0.090937	-0.219014	1.436358	-0.083006	0.058802	1.303401	0.008549	0.002225	1.281200	0.067297	0.018499	1.315311	0.023666	0.060023	1.263047	0.045096	0.010618	1.317694	-0.038272	-0.019080	1.147938	0.063451	-0.134832	1.341003	-0.064650	0.001777	1.299059	0.050708
3497	34.970000	-0.021683	1.365858	-0.161478	-0.078492	1.163983	-0.136829	-0.348660	1.474068	0.054954	-0.346492	1.429332	0.093600	-0.483488	1.646502	0.142371	-0.455344	1.648109	0.185573	-0.179955	1.365341	-0.037348	-0.431862	1.644186	0.110265	-0.463303	1.682195	0.134159	-0.446889	1.681318	0.156694	-0.405343	1.642460	0.146638	-0.270651	1.464985	-0.036406	-0.295575	1.410850	-0.045629	-0.255711	1.388717	-0.090345	-0.220434	1.435179	-0.081917	0.058575	1.303393	0.008520	0.002096	1.280976	0.067259	0.018897	1.315693	0.023893	0.059909	1.262985	0.044996	0.010332	1.317614	-0.038280	-0.018763	1.147580	0.063153	-0.135405	1.340412	-0.064503	0.001536	1.298815	0.050654
3498	34.980000	-0.022112	1.365910	-0.161386	-0.078191	1.163783	-0.137135	-0.350562	1.470154	0.056340	-0.347998	1.425031	0.094508	-0.486945	1.640201	0.145853	-0.458829	1.641498	0.189083	-0.180398	1.364579	-0.037280	-0.435394	1.638760	0.113655	-0.466939	1.676315	0.137784	-0.450684	1.675158	0.160566	-0.408705	1.636868	0.149974	-0.272385	1.462721	-0.034971	-0.296901	1.408493	-0.044903	-0.256773	1.387176	-0.089732	-0.221883	1.433875	-0.080827	0.058331	1.303392	0.008512	0.001908	1.280711	0.067157	0.018504	1.315451	0.023841	0.059811	1.262922	0.044910	0.010062	1.317545	-0.038276	-0.018430	1.147211	0.062825	-0.135963	1.339803	-0.064358	0.001303	1.298528	0.050575
3499	34.990000	-0.022512	1.366002	-0.161274	-0.077856	1.163618	-0.137474	-0.352448	1.466120	0.057714	-0.349483	1.420604	0.095383	-0.490387	1.633689	0.149341	-0.462301	1.634661	0.192600	-0.180821	1.363822	-0.037208	-0.438848	1.633156	0.117187	-0.471039	1.669873	0.142110	-0.454572	1.668707	0.164659	-0.412128	1.631064	0.153384	-0.274119	1.460475	-0.033708	-0.298095	1.406101	-0.044193	-0.257703	1.385653	-0.089244	-0.223285	1.432613	-0.079724	0.058147	1.303402	0.008523	0.001808	1.280317	0.067286	0.018197	1.315272	0.023889	0.059746	1.262866	0.044823	0.009810	1.317488	-0.038262	-0.018081	1.146832	0.062463	-0.136503	1.339180	-0.064212	0.001086	1.298318	0.050978
3500	35.000000	-0.022882	1.366133	-0.161140	-0.077485	1.163489	-0.137846	-0.354316	1.461972	0.059069	-0.350940	1.416062	0.096223	-0.493814	1.626967	0.152817	-0.465760	1.627604	0.196103	-0.181222	1.363069	-0.037132	-0.442164	1.627370	0.120635	-0.474941	1.663424	0.146327	-0.458270	1.662287	0.168540	-0.415571	1.625086	0.156845	-0.275992	1.458118	-0.032395	-0.299307	1.403630	-0.043424	-0.258604	1.384096	-0.088651	-0.224722	1.431295	-0.078587	0.057958	1.303429	0.008514	0.001678	1.279968	0.067212	0.017835	1.315017	0.023925	0.059695	1.262819	0.044742	0.009580	1.317443	-0.038234	-0.017712	1.146443	0.062070	-0.137021	1.338548	-0.064063	0.000879	1.297980	0.050972
3501	35.010000	-0.023220	1.366306	-0.160984	-0.077083	1.163400	-0.138248	-0.356158	1.457716	0.060402	-0.352361	1.411412	0.097023	-0.497227	1.620049	0.156262	-0.469207	1.620343	0.199574	-0.181597	1.362328	-0.037048	-0.445528	1.621443	0.124111	-0.478628	1.656896	0.150248	-0.462023	1.655470	0.172551	-0.418983	1.618883	0.160375	-0.277711	1.455768	-0.031021	-0.300209	1.401134	-0.042668	-0.259494	1.382582	-0.088138	-0.226090	1.429966	-0.077432	0.057790	1.303454	0.008544	0.001590	1.279662	0.067157	0.017588	1.314864	0.023945	0.059675	1.262775	0.044665	0.009372	1.317410	-0.038194	-0.017327	1.146045	0.061646	-0.137514	1.337911	-0.063909	0.000711	1.297604	0.050911
3502	35.020000	-0.023527	1.366516	-0.160804	-0.076650	1.163348	-0.138677	-0.357972	1.453362	0.061707	-0.353743	1.406669	0.097781	-0.500624	1.612940	0.159658	-0.472639	1.612891	0.202993	-0.181945	1.361597	-0.036955	-0.448861	1.615315	0.127674	-0.482308	1.650034	0.154180	-0.465807	1.648393	0.176551	-0.422397	1.612433	0.163884	-0.279457	1.453320	-0.029636	-0.301603	1.398507	-0.041980	-0.260313	1.381007	-0.087584	-0.227446	1.428572	-0.076274	0.057641	1.303481	0.008556	0.001582	1.279379	0.067138	0.017415	1.314701	0.023990	0.059686	1.262740	0.044607	0.009189	1.317388	-0.038140	-0.016923	1.145639	0.061195	-0.137979	1.337273	-0.063747	0.000582	1.297332	0.050905
3503	35.030000	-0.023804	1.366760	-0.160601	-0.076191	1.163332	-0.139127	-0.359753	1.448920	0.062977	-0.355079	1.401845	0.098496	-0.504006	1.605656	0.162986	-0.476057	1.605267	0.206343	-0.182265	1.360878	-0.036849	-0.452176	1.609037	0.131143	-0.485911	1.643104	0.157939	-0.469560	1.641194	0.180565	-0.425726	1.605842	0.167331	-0.281225	1.450826	-0.028320	-0.302616	1.396003	-0.041381	-0.261137	1.379484	-0.087087	-0.228766	1.427172	-0.075090	0.057511	1.303512	0.008578	0.001580	1.279047	0.067102	0.017200	1.314500	0.024021	0.059722	1.262690	0.044513	0.009031	1.317375	-0.038071	-0.016500	1.145227	0.060720	-0.138418	1.336640	-0.063575	0.000507	1.297076	0.050901
